# xmcd
#
# Track frame offsets: 
#        150
#        12593
#        25224
#        38280
#        51052
#        62637
#        74134
#        86920
#        100071
#        112267
#        121716
#        134622
#        147695
#        164722
#        177856
#
# Disc length: 2512 seconds
#
# Revision: 0
# Processed by: cddbd v1.5.2PL0 Copyright (c) Steve Scherf et al.
# Submitted via: ExactAudioCopy v1.0b1
#
DISCID=df09ce0f
DTITLE=Various Artists  - Malt Shop Memories - All I Have To Do Is Dre
DTITLE=am [Disc 2]
DYEAR=1900
DGENRE=
TTITLE0=Martha and The Vandellas - (Love Is Like A) Heat Wave
TTITLE1=Supremes - Come See About Me
TTITLE2=Temptations - The Girl's Alright With Me
TTITLE3=Platters - Twilight Time
TTITLE4=Jackie Wilson - Lonely Teardrops
TTITLE5=Marvelettes - Please Mr. Postman
TTITLE6=Mary Wells - Two Lovers
TTITLE7=Miracles - You've Really Got A Hold On Me
TTITLE8=Martha and The Vandellas - Dancing In The Street
TTITLE9=Shirelles - Dedicated To The One I Love
TTITLE10=Supremes - Baby Love
TTITLE11=Marvelettes - Don't Mess With Bill
TTITLE12=Righteous Brothers - You've Lost That Lovin Feelin
TTITLE13=Mary Wells - My Guy
TTITLE14=Lee Andrews and The Hearts - Teardrops
EXTD=
EXTT0=
EXTT1=
EXTT2=
EXTT3=
EXTT4=
EXTT5=
EXTT6=
EXTT7=
EXTT8=
EXTT9=
EXTT10=
EXTT11=
EXTT12=
EXTT13=
EXTT14=
PLAYORDER=
